<svg width="239" height="946" viewBox="0 0 239 946" fill="none" xmlns="http://www.w3.org/2000/svg">
<circle cx="72.8869" cy="36.7785" r="36.5419" fill="#77C9C8"/>
<path d="M77.8347 20.9518V53.7985H72.8628V25.9237H72.6703L64.8115 31.056V26.3086L73.0072 20.9518H77.8347Z" fill="white"/>
<circle cx="108.197" cy="468.712" r="36.5419" fill="#77C9C8"/>
<path d="M97.5078 486.553V482.96L108.622 471.445C109.809 470.194 110.788 469.098 111.557 468.157C112.338 467.205 112.921 466.302 113.306 465.446C113.691 464.591 113.883 463.682 113.883 462.72C113.883 461.629 113.626 460.688 113.113 459.897C112.6 459.095 111.9 458.48 111.012 458.053C110.125 457.614 109.125 457.395 108.013 457.395C106.837 457.395 105.81 457.636 104.934 458.117C104.057 458.598 103.383 459.277 102.913 460.154C102.442 461.031 102.207 462.057 102.207 463.233H97.4757C97.4757 461.234 97.9355 459.486 98.855 457.989C99.7746 456.492 101.036 455.332 102.64 454.508C104.244 453.674 106.067 453.257 108.109 453.257C110.173 453.257 111.99 453.669 113.562 454.492C115.145 455.305 116.38 456.417 117.267 457.828C118.155 459.229 118.598 460.811 118.598 462.576C118.598 463.794 118.368 464.987 117.909 466.152C117.46 467.318 116.674 468.617 115.551 470.049C114.428 471.472 112.867 473.198 110.868 475.23L104.34 482.062V482.303H119.128V486.553H97.5078Z" fill="white"/>
<circle cx="130.369" cy="896.539" r="36.5419" fill="#77C9C8"/>
<path d="M130.409 914.008C128.206 914.008 126.239 913.629 124.507 912.869C122.785 912.11 121.422 911.057 120.417 909.71C119.422 908.352 118.888 906.78 118.813 904.995H123.849C123.913 905.968 124.239 906.812 124.827 907.529C125.426 908.234 126.207 908.78 127.169 909.165C128.131 909.549 129.2 909.742 130.377 909.742C131.67 909.742 132.814 909.517 133.809 909.068C134.814 908.619 135.6 907.994 136.166 907.192C136.733 906.379 137.016 905.444 137.016 904.385C137.016 903.284 136.733 902.316 136.166 901.482C135.61 900.637 134.792 899.975 133.713 899.493C132.643 899.012 131.35 898.772 129.831 898.772H127.057V894.73H129.831C131.05 894.73 132.119 894.511 133.039 894.072C133.969 893.634 134.696 893.025 135.22 892.244C135.744 891.453 136.006 890.528 136.006 889.469C136.006 888.454 135.776 887.572 135.316 886.823C134.867 886.064 134.226 885.471 133.392 885.043C132.568 884.615 131.595 884.401 130.473 884.401C129.404 884.401 128.404 884.599 127.474 884.995C126.554 885.38 125.806 885.936 125.228 886.663C124.651 887.379 124.341 888.24 124.298 889.245H119.503C119.556 887.47 120.08 885.909 121.074 884.562C122.079 883.214 123.405 882.161 125.052 881.402C126.698 880.643 128.527 880.263 130.537 880.263C132.643 880.263 134.461 880.675 135.99 881.498C137.53 882.311 138.717 883.396 139.551 884.754C140.395 886.112 140.812 887.598 140.802 889.213C140.812 891.052 140.299 892.613 139.262 893.896C138.235 895.179 136.867 896.04 135.156 896.478V896.735C137.337 897.066 139.027 897.932 140.224 899.333C141.432 900.734 142.031 902.471 142.02 904.546C142.031 906.352 141.529 907.972 140.513 909.405C139.508 910.838 138.134 911.966 136.391 912.789C134.648 913.602 132.654 914.008 130.409 914.008Z" fill="white"/>
<path d="M92.9113 549C79.5297 573.538 73.4653 599.313 85.1858 626.082C95.3685 649.339 111.746 668.164 123.031 690.683C135.782 716.128 143.014 745.714 143.922 774.071C144.231 783.738 141.491 795.476 142.999 804.637" stroke="black" stroke-width="4" stroke-linecap="round" stroke-dasharray="8.42 8.42"/>
<path d="M130.017 792.194C135.003 799.079 139.738 807.604 143.807 813.98C145.922 817.294 144.999 817.719 145.25 815.362C146.064 807.718 150.036 796.572 154.498 790.352" stroke="black" stroke-width="4" stroke-linecap="round" stroke-dasharray="8.42 8.42"/>
<path d="M87.4943 107.96C107.095 127.885 119.998 151.007 116.072 179.965C112.661 205.123 102.077 227.719 97.4034 252.47C92.1227 280.437 93.2856 310.872 100.193 338.39C102.548 347.77 108.403 358.306 109.467 367.529" stroke="black" stroke-width="4" stroke-linecap="round" stroke-dasharray="8.42 8.42"/>
<path d="M118.537 352.002C115.631 359.991 113.416 369.488 111.253 376.736C110.128 380.504 111.133 380.658 110.245 378.461C107.365 371.333 100.487 361.705 94.4895 356.948" stroke="black" stroke-width="4" stroke-linecap="round" stroke-dasharray="8.42 8.42"/>
</svg>
