<svg width="106" height="106" viewBox="0 0 106 106" fill="none" xmlns="http://www.w3.org/2000/svg">
<g filter="url(#filter0_d_1122_173)">
<rect x="20" y="10" width="66" height="66" rx="24" fill="url(#paint0_linear_1122_173)"/>
</g>
<path d="M50.6458 40.75H54.4999C54.9088 40.75 55.3009 40.5919 55.5901 40.3106C55.8792 40.0293 56.0416 39.6478 56.0416 39.25C56.0416 38.8522 55.8792 38.4706 55.5901 38.1893C55.3009 37.908 54.9088 37.75 54.4999 37.75H52.9583V37C52.9583 36.6022 52.7958 36.2206 52.5067 35.9393C52.2176 35.658 51.8255 35.5 51.4166 35.5C51.0077 35.5 50.6156 35.658 50.3265 35.9393C50.0374 36.2206 49.8749 36.6022 49.8749 37V37.825C48.9383 38.01 48.1057 38.5271 47.5388 39.2759C46.9719 40.0246 46.7112 40.9516 46.8072 41.8769C46.9033 42.8021 47.3493 43.6596 48.0586 44.283C48.7679 44.9063 49.69 45.2509 50.6458 45.25H52.1874C52.3919 45.25 52.5879 45.329 52.7325 45.4697C52.8771 45.6103 52.9583 45.8011 52.9583 46C52.9583 46.1989 52.8771 46.3897 52.7325 46.5303C52.5879 46.671 52.3919 46.75 52.1874 46.75H48.3333C47.9244 46.75 47.5323 46.908 47.2431 47.1893C46.954 47.4706 46.7916 47.8522 46.7916 48.25C46.7916 48.6478 46.954 49.0293 47.2431 49.3106C47.5323 49.5919 47.9244 49.75 48.3333 49.75H49.8749V50.5C49.8749 50.8978 50.0374 51.2793 50.3265 51.5606C50.6156 51.8419 51.0077 52 51.4166 52C51.8255 52 52.2176 51.8419 52.5067 51.5606C52.7958 51.2793 52.9583 50.8978 52.9583 50.5V49.675C53.8949 49.4899 54.7275 48.9728 55.2944 48.2241C55.8613 47.4753 56.122 46.5484 56.026 45.6231C55.9299 44.6979 55.4839 43.8403 54.7746 43.217C54.0653 42.5937 53.1432 42.249 52.1874 42.25H50.6458C50.4413 42.25 50.2453 42.171 50.1007 42.0303C49.9561 41.8897 49.8749 41.6989 49.8749 41.5C49.8749 41.3011 49.9561 41.1103 50.1007 40.9697C50.2453 40.829 50.4413 40.75 50.6458 40.75ZM68.3749 43H63.7499V29.5C63.751 29.2357 63.6803 28.9758 63.5449 28.7466C63.4096 28.5174 63.2144 28.3271 62.9791 28.195C62.7447 28.0633 62.4789 27.994 62.2083 27.994C61.9376 27.994 61.6718 28.0633 61.4374 28.195L56.8124 30.775L52.1874 28.195C51.9531 28.0633 51.6872 27.994 51.4166 27.994C51.146 27.994 50.8801 28.0633 50.6458 28.195L46.0208 30.775L41.3958 28.195C41.1614 28.0633 40.8955 27.994 40.6249 27.994C40.3543 27.994 40.0885 28.0633 39.8541 28.195C39.6188 28.3271 39.4236 28.5174 39.2883 28.7466C39.1529 28.9758 39.0822 29.2357 39.0833 29.5V53.5C39.0833 54.6935 39.5705 55.838 40.4379 56.682C41.3053 57.5259 42.4816 58 43.7083 58H65.2916C66.5182 58 67.6946 57.5259 68.562 56.682C69.4293 55.838 69.9166 54.6935 69.9166 53.5V44.5C69.9166 44.1022 69.7542 43.7206 69.4651 43.4393C69.1759 43.158 68.7838 43 68.3749 43ZM43.7083 55C43.2994 55 42.9073 54.8419 42.6181 54.5606C42.329 54.2793 42.1666 53.8978 42.1666 53.5V32.095L45.2499 33.805C45.4879 33.9259 45.7523 33.989 46.0208 33.989C46.2892 33.989 46.5537 33.9259 46.7916 33.805L51.4166 31.225L56.0416 33.805C56.2795 33.9259 56.544 33.989 56.8124 33.989C57.0809 33.989 57.3453 33.9259 57.5833 33.805L60.6666 32.095V53.5C60.6708 54.0117 60.7646 54.519 60.9441 55H43.7083ZM66.8333 53.5C66.8333 53.8978 66.6708 54.2793 66.3817 54.5606C66.0926 54.8419 65.7005 55 65.2916 55C64.8827 55 64.4906 54.8419 64.2015 54.5606C63.9124 54.2793 63.7499 53.8978 63.7499 53.5V46H66.8333V53.5Z" fill="white"/>
<defs>
<filter id="filter0_d_1122_173" x="0" y="0" width="106" height="106" filterUnits="userSpaceOnUse" color-interpolation-filters="sRGB">
<feFlood flood-opacity="0" result="BackgroundImageFix"/>
<feColorMatrix in="SourceAlpha" type="matrix" values="0 0 0 0 0 0 0 0 0 0 0 0 0 0 0 0 0 0 127 0" result="hardAlpha"/>
<feMorphology radius="2" operator="erode" in="SourceAlpha" result="effect1_dropShadow_1122_173"/>
<feOffset dy="10"/>
<feGaussianBlur stdDeviation="11"/>
<feColorMatrix type="matrix" values="0 0 0 0 0.97947 0 0 0 0 0.730307 0 0 0 0 0.328531 0 0 0 0.3 0"/>
<feBlend mode="normal" in2="BackgroundImageFix" result="effect1_dropShadow_1122_173"/>
<feBlend mode="normal" in="SourceGraphic" in2="effect1_dropShadow_1122_173" result="shape"/>
</filter>
<linearGradient id="paint0_linear_1122_173" x1="33.5" y1="10" x2="65" y2="76" gradientUnits="userSpaceOnUse">
<stop stop-color="#FFD085"/>
<stop offset="1" stop-color="#FFAF2E"/>
</linearGradient>
</defs>
</svg>
