<svg width="106" height="106" viewBox="0 0 106 106" fill="none" xmlns="http://www.w3.org/2000/svg">
<g filter="url(#filter0_d_1122_170)">
<rect x="20" y="10" width="66" height="66" rx="24" fill="url(#paint0_linear_1122_170)"/>
</g>
<path fill-rule="evenodd" clip-rule="evenodd" d="M40.9054 26C38.1962 26 36 27.8644 36 30.1642V57.421C36 59.7208 38.1962 61.5852 40.9054 61.5852H64.0946C66.8038 61.5852 69 59.7208 69 57.421V30.1642C69 27.8644 66.8038 26 64.0946 26H40.9054ZM44.473 30.5428C42.7489 30.5428 41.3514 31.7292 41.3514 33.1928C41.3514 34.6563 42.7489 35.8427 44.473 35.8427C46.197 35.8427 47.5946 34.6563 47.5946 33.1928C47.5946 31.7292 46.197 30.5428 44.473 30.5428ZM41.3514 43.7926C41.3514 42.3291 42.7489 41.1426 44.473 41.1426C46.197 41.1426 47.5946 42.3291 47.5946 43.7926C47.5946 45.2561 46.197 46.4426 44.473 46.4426C42.7489 46.4426 41.3514 45.2561 41.3514 43.7926ZM44.473 51.7425C42.7489 51.7425 41.3514 52.9289 41.3514 54.3924C41.3514 55.856 42.7489 57.0424 44.473 57.0424C46.197 57.0424 47.5946 55.856 47.5946 54.3924C47.5946 52.9289 46.197 51.7425 44.473 51.7425ZM53.3919 32.0571C52.653 32.0571 52.0541 32.5655 52.0541 33.1928C52.0541 33.82 52.653 34.3284 53.3919 34.3284H64.0946C64.8334 34.3284 65.4324 33.82 65.4324 33.1928C65.4324 32.5655 64.8334 32.0571 64.0946 32.0571H53.3919ZM52.0541 43.7926C52.0541 43.1654 52.653 42.6569 53.3919 42.6569H64.0946C64.8334 42.6569 65.4324 43.1654 65.4324 43.7926C65.4324 44.4198 64.8334 44.9283 64.0946 44.9283H53.3919C52.653 44.9283 52.0541 44.4198 52.0541 43.7926ZM53.3919 53.2567C52.653 53.2567 52.0541 53.7652 52.0541 54.3924C52.0541 55.0196 52.653 55.5281 53.3919 55.5281H64.0946C64.8334 55.5281 65.4324 55.0196 65.4324 54.3924C65.4324 53.7652 64.8334 53.2567 64.0946 53.2567H53.3919Z" fill="white"/>
<defs>
<filter id="filter0_d_1122_170" x="0" y="0" width="106" height="106" filterUnits="userSpaceOnUse" color-interpolation-filters="sRGB">
<feFlood flood-opacity="0" result="BackgroundImageFix"/>
<feColorMatrix in="SourceAlpha" type="matrix" values="0 0 0 0 0 0 0 0 0 0 0 0 0 0 0 0 0 0 127 0" result="hardAlpha"/>
<feMorphology radius="2" operator="erode" in="SourceAlpha" result="effect1_dropShadow_1122_170"/>
<feOffset dy="10"/>
<feGaussianBlur stdDeviation="11"/>
<feColorMatrix type="matrix" values="0 0 0 0 0.97947 0 0 0 0 0.730307 0 0 0 0 0.328531 0 0 0 0.3 0"/>
<feBlend mode="normal" in2="BackgroundImageFix" result="effect1_dropShadow_1122_170"/>
<feBlend mode="normal" in="SourceGraphic" in2="effect1_dropShadow_1122_170" result="shape"/>
</filter>
<linearGradient id="paint0_linear_1122_170" x1="33.5" y1="10" x2="65" y2="76" gradientUnits="userSpaceOnUse">
<stop stop-color="#FFD085"/>
<stop offset="1" stop-color="#FFAF2E"/>
</linearGradient>
</defs>
</svg>
