<svg width="22" height="23" viewBox="0 0 22 23" fill="none" xmlns="http://www.w3.org/2000/svg">
<path d="M10.9542 3.51201C13.475 3.51201 13.75 3.51201 14.7583 3.55928C15.675 3.60654 16.1792 3.74834 16.5 3.89014C16.9125 4.03193 17.2792 4.31553 17.6 4.59912C17.9208 4.92998 18.15 5.3081 18.2875 5.73349C18.425 6.06435 18.5625 6.58428 18.6083 7.52959C18.6542 8.56943 18.6542 8.85302 18.6542 11.4526C18.6542 14.0522 18.6542 14.3358 18.6083 15.3757C18.5625 16.321 18.425 16.8409 18.2875 17.1718C17.9667 18.0226 17.325 18.6843 16.5 19.0151C16.1792 19.1569 15.675 19.2987 14.7583 19.346C13.75 19.3933 13.475 19.3933 10.9542 19.3933C8.43335 19.3933 8.15835 19.3933 7.15002 19.346C6.23335 19.2987 5.72918 19.1569 5.40835 19.0151C4.99585 18.8733 4.62918 18.5897 4.30835 18.3061C3.98752 17.9753 3.75835 17.5972 3.62085 17.1718C3.48335 16.8409 3.34585 16.321 3.30002 15.3757C3.25418 14.3358 3.25418 14.0522 3.25418 11.4526C3.25418 8.85302 3.25418 8.56943 3.30002 7.52959C3.34585 6.58428 3.48335 6.06435 3.62085 5.73349C3.75835 5.3081 4.03335 4.92998 4.30835 4.59912C4.62918 4.26826 4.99585 4.03193 5.40835 3.89014C5.72918 3.74834 6.23335 3.60654 7.15002 3.55928C8.15835 3.51201 8.47918 3.51201 10.9542 3.51201ZM10.9542 1.76318C8.38752 1.76318 8.06668 1.76318 7.05835 1.81045C6.05002 1.85771 5.36252 1.99951 4.76668 2.28311C4.17085 2.51943 3.62085 2.89756 3.16252 3.37021C2.70418 3.84287 2.29168 4.45732 2.06252 5.07178C1.83335 5.68623 1.65002 6.39521 1.60418 7.43506C1.55835 8.4749 1.55835 8.80576 1.55835 11.4526C1.55835 14.0995 1.55835 14.4304 1.60418 15.4702C1.65002 16.5101 1.78752 17.219 2.06252 17.8335C2.29168 18.4479 2.65835 19.0624 3.16252 19.535C3.62085 20.0077 4.21668 20.4331 4.81252 20.6694C5.40835 20.9058 6.09585 21.0948 7.10418 21.1421C8.11252 21.1893 8.43335 21.1893 11 21.1893C13.5667 21.1893 13.8875 21.1893 14.8958 21.1421C15.9042 21.0948 16.5917 20.953 17.1875 20.6694C18.4708 20.1495 19.4333 19.1569 19.9375 17.8335C20.1667 17.219 20.35 16.5101 20.3958 15.4702C20.4417 14.4304 20.4417 14.0995 20.4417 11.4526C20.4417 8.80576 20.4417 8.4749 20.3958 7.43506C20.35 6.39521 20.2125 5.68623 19.9375 5.07178C19.7083 4.41006 19.3417 3.84287 18.8375 3.37021C18.3792 2.89756 17.7833 2.47217 17.1875 2.23584C16.5917 1.99951 15.9042 1.81045 14.8958 1.76318C13.8417 1.76318 13.5208 1.76318 10.9542 1.76318Z" fill="#2B2B39"/>
<path d="M10.9529 6.48975C8.29455 6.48975 6.14038 8.71123 6.14038 11.4526C6.14038 14.194 8.29455 16.4155 10.9529 16.4155C13.6112 16.4155 15.7654 14.194 15.7654 11.4526C15.8112 8.71123 13.6571 6.48975 10.9529 6.48975ZM10.9529 14.714C9.21122 14.714 7.83622 13.2487 7.83622 11.4999C7.83622 9.70381 9.25705 8.28584 10.9529 8.28584C12.6946 8.28584 14.0696 9.75108 14.0696 11.4999C14.1154 13.2487 12.6946 14.714 10.9529 14.714Z" fill="#2B2B39"/>
<path d="M15.9972 7.48242C16.63 7.48242 17.143 6.95338 17.143 6.30078C17.143 5.64818 16.63 5.11914 15.9972 5.11914C15.3643 5.11914 14.8513 5.64818 14.8513 6.30078C14.8513 6.95338 15.3643 7.48242 15.9972 7.48242Z" fill="#2B2B39"/>
</svg>
