<svg width="106" height="106" viewBox="0 0 106 106" fill="none" xmlns="http://www.w3.org/2000/svg">
<g filter="url(#filter0_d_1122_171)">
<rect x="20" y="12" width="66" height="66" rx="24" fill="url(#paint0_linear_1122_171)"/>
</g>
<path d="M53 31.8334C56.5435 35.7127 58.5573 40.7471 58.6667 46C58.5573 51.253 56.5435 56.2874 53 60.1667M53 31.8334C49.4566 35.7127 47.4428 40.7471 47.3334 46C47.4428 51.253 49.4566 56.2874 53 60.1667M53 31.8334C45.176 31.8334 38.8334 38.176 38.8334 46C38.8334 53.8241 45.176 60.1667 53 60.1667M53 31.8334C60.8241 31.8334 67.1667 38.176 67.1667 46C67.1667 53.8241 60.8241 60.1667 53 60.1667M39.5417 41.75H66.4584M39.5417 50.25H66.4584" stroke="white" stroke-width="2.83333" stroke-linecap="round" stroke-linejoin="round"/>
<defs>
<filter id="filter0_d_1122_171" x="0" y="0" width="106" height="106" filterUnits="userSpaceOnUse" color-interpolation-filters="sRGB">
<feFlood flood-opacity="0" result="BackgroundImageFix"/>
<feColorMatrix in="SourceAlpha" type="matrix" values="0 0 0 0 0 0 0 0 0 0 0 0 0 0 0 0 0 0 127 0" result="hardAlpha"/>
<feMorphology radius="2" operator="erode" in="SourceAlpha" result="effect1_dropShadow_1122_171"/>
<feOffset dy="8"/>
<feGaussianBlur stdDeviation="11"/>
<feColorMatrix type="matrix" values="0 0 0 0 0.971137 0 0 0 0 0.341921 0 0 0 0 0.36709 0 0 0 0.3 0"/>
<feBlend mode="normal" in2="BackgroundImageFix" result="effect1_dropShadow_1122_171"/>
<feBlend mode="normal" in="SourceGraphic" in2="effect1_dropShadow_1122_171" result="shape"/>
</filter>
<linearGradient id="paint0_linear_1122_171" x1="33.5" y1="12" x2="65" y2="78" gradientUnits="userSpaceOnUse">
<stop stop-color="#FF858A"/>
<stop offset="1" stop-color="#F04148"/>
</linearGradient>
</defs>
</svg>
