<svg width="22" height="23" viewBox="0 0 22 23" fill="none" xmlns="http://www.w3.org/2000/svg">
<path d="M4.56768 6.95944C5.67538 6.95944 6.57334 6.03341 6.57334 4.8911C6.57334 3.74878 5.67538 2.82275 4.56768 2.82275C3.45998 2.82275 2.56201 3.74878 2.56201 4.8911C2.56201 6.03341 3.45998 6.95944 4.56768 6.95944Z" fill="#2B2B39"/>
<path d="M8.4661 8.52725V20.0024H11.921V14.3277C11.921 12.8303 12.1942 11.3802 13.9945 11.3802C15.7701 11.3802 15.7921 13.0922 15.7921 14.4222V20.0033H19.2489V13.7104C19.2489 10.6192 18.6035 8.24365 15.1 8.24365C13.4179 8.24365 12.2904 9.19558 11.8294 10.0965H11.7826V8.52725H8.4661ZM2.83594 8.52725H6.29635V20.0024H2.83594V8.52725Z" fill="#2B2B39"/>
</svg>
