<svg width="106" height="106" viewBox="0 0 106 106" fill="none" xmlns="http://www.w3.org/2000/svg">
<g filter="url(#filter0_d_1122_174)">
<rect x="20" y="10" width="66" height="66" rx="24" fill="url(#paint0_linear_1122_174)"/>
</g>
<path d="M42.739 31.9139L45.2653 34.3519C45.4232 33.4884 45.8969 32.6757 46.5811 32.0662C48.2653 30.5425 51.0022 30.4917 52.6864 32.0155C52.7916 32.117 52.8969 32.2186 53.0022 32.3202C53.6864 33.0821 54.1074 34.0471 54.1074 35.0629C54.1074 35.2661 54.1074 35.4693 54.0548 35.6216C53.9495 36.5867 53.5285 37.4501 52.7916 38.1612C52.1601 38.7707 51.3706 39.177 50.4759 39.3294L53.0022 41.7674L56.0548 38.8215C56.1074 38.7707 56.1074 38.7707 56.1601 38.7707C56.1601 38.7707 56.1601 38.7707 56.2127 38.7707C56.2653 38.7707 56.2653 38.7707 56.318 38.7707C56.3706 38.7707 56.4232 38.7707 56.4232 38.7707C56.5285 38.8215 56.6338 38.9231 56.6338 39.0754C56.6338 40.0405 57.0548 40.9039 57.739 41.5642C58.4759 42.2753 59.4232 42.6308 60.4232 42.6308C60.4232 42.6308 60.4232 42.6308 60.4759 42.6308C60.7916 42.6308 61.0548 42.58 61.3706 42.5293C62.0548 42.3769 62.6864 42.0213 63.1601 41.5134C64.0022 40.5992 64.318 39.3802 64.0548 38.212C63.8969 37.6025 63.5811 37.0438 63.1601 36.5867C62.8969 36.3327 62.5811 36.0788 62.2653 35.9264C61.9495 35.774 61.6338 35.6724 61.318 35.5708C61.1601 35.5201 61.0022 35.5201 60.8443 35.4693C60.739 35.4693 60.5811 35.4693 60.4759 35.4693C60.318 35.4693 60.2127 35.3677 60.1601 35.2661C60.1074 35.1645 60.1601 35.0121 60.2127 34.9106L63.2653 31.9647L54.739 23.6857C53.7916 22.7714 52.2127 22.7714 51.2653 23.6857L42.739 31.9139Z" fill="white"/>
<path d="M72.2633 40.5992L63.737 32.371L61.2107 34.809C62.1054 34.9613 62.9475 35.4184 63.5791 36.0279C65.158 37.6533 65.2107 40.2944 63.6317 41.9197C62.7896 42.7832 61.6844 43.2911 60.4738 43.2911C59.2633 43.3419 58.1054 42.8848 57.2633 42.0213C56.6317 41.4118 56.2107 40.65 56.0528 39.7865L53.4738 42.2753L56.5265 45.2212C56.6317 45.3228 56.6317 45.4751 56.5791 45.5767C56.5265 45.6783 56.4212 45.7799 56.2633 45.7799C55.2633 45.7799 54.3686 46.1862 53.6844 46.8465C52.9475 47.5576 52.5791 48.4718 52.5791 49.4876C52.5791 50.4527 53.0002 51.3669 53.7896 52.078C54.0002 52.2812 54.2633 52.4843 54.5791 52.5859C55.9475 53.297 57.737 53.0938 58.9475 52.0272C59.6844 51.3669 60.1054 50.4527 60.1054 49.4876C60.1054 49.3353 60.2107 49.2337 60.3159 49.1829C60.4212 49.1321 60.5791 49.1829 60.6844 49.2337L63.737 52.1796L72.2633 43.9514C72.737 43.4943 73.0002 42.8848 73.0002 42.2753C73.0002 41.615 72.737 41.0563 72.2633 40.5992Z" fill="white"/>
<path d="M60.7369 50.1988C60.579 51.0622 60.1053 51.8749 59.4211 52.4844C57.7369 54.0081 55 54.0589 53.3158 52.5352C52.4211 51.7225 51.8948 50.6559 51.8948 49.4877C51.8948 48.6242 52.1579 47.7608 52.6316 47.0497C52.7895 46.7958 53 46.5926 53.2105 46.3894C53.8421 45.7799 54.6316 45.3736 55.5263 45.2212L53 42.7325L49.9474 45.6784C49.8421 45.8307 49.6842 45.8307 49.579 45.7799C49.4737 45.7291 49.3684 45.6276 49.3684 45.4752C49.3684 44.5102 48.9474 43.6467 48.2632 42.9864C47.5263 42.2753 46.579 41.9198 45.5263 41.9198C45.4211 41.9198 45.2632 41.9198 45.1579 41.9198C44.2632 42.0214 43.4737 42.4277 42.8421 43.0372C41.8421 44.053 41.6316 45.5768 42.1053 46.8466C42.1053 46.8973 42.1579 46.9481 42.1579 46.9989C42.1579 47.0497 42.2105 47.1005 42.2105 47.1513C42.3684 47.4561 42.579 47.7608 42.8421 48.0148C43.5263 48.7258 44.4737 49.1322 45.4737 49.1322C45.6316 49.1322 45.7369 49.2337 45.7895 49.3353C45.8421 49.4369 45.7895 49.5893 45.7369 49.6909L42.6842 52.6368L51.2105 60.865C52.1579 61.7792 53.7369 61.7792 54.6842 60.865L63.2105 52.6368L60.7369 50.1988Z" fill="white"/>
<path d="M33.7368 43.9514L42.2632 52.1796L44.7895 49.7416C43.8947 49.5892 43.0526 49.1321 42.4211 48.4718C40.8421 46.8465 40.7895 44.2053 42.3684 42.58C43.2105 41.7166 44.3158 41.2087 45.5263 41.2087C46.7368 41.2087 47.8947 41.615 48.7368 42.4784C49.3684 43.0879 49.7895 43.8498 49.9474 44.7133L52.4737 42.2753L49.4211 39.3294C49.3158 39.2278 49.3158 39.0754 49.3684 38.9738C49.4211 38.8723 49.5263 38.7707 49.6842 38.7707C50.6842 38.7707 51.5789 38.3644 52.2632 37.7041C52.3684 37.6025 52.4211 37.5009 52.5263 37.4501C53.1053 36.7898 53.3684 35.9772 53.3684 35.1137C53.3684 34.1487 52.9474 33.2344 52.1579 32.5234C50.7368 31.2536 48.4211 31.2536 47.0526 32.5741C46.3158 33.2344 45.8947 34.1487 45.8947 35.1137C45.8947 35.2661 45.7895 35.3677 45.6842 35.4185C45.5789 35.4692 45.4211 35.4185 45.3158 35.3677L42.2632 32.4218L33.7368 40.5992C33.2632 41.0563 33 41.615 33 42.2753C33 42.9356 33.2632 43.4943 33.7368 43.9514Z" fill="white"/>
<defs>
<filter id="filter0_d_1122_174" x="0" y="0" width="106" height="106" filterUnits="userSpaceOnUse" color-interpolation-filters="sRGB">
<feFlood flood-opacity="0" result="BackgroundImageFix"/>
<feColorMatrix in="SourceAlpha" type="matrix" values="0 0 0 0 0 0 0 0 0 0 0 0 0 0 0 0 0 0 127 0" result="hardAlpha"/>
<feMorphology radius="2" operator="erode" in="SourceAlpha" result="effect1_dropShadow_1122_174"/>
<feOffset dy="10"/>
<feGaussianBlur stdDeviation="11"/>
<feColorMatrix type="matrix" values="0 0 0 0 0.427083 0 0 0 0 0.671455 0 0 0 0 1 0 0 0 0.36 0"/>
<feBlend mode="normal" in2="BackgroundImageFix" result="effect1_dropShadow_1122_174"/>
<feBlend mode="normal" in="SourceGraphic" in2="effect1_dropShadow_1122_174" result="shape"/>
</filter>
<linearGradient id="paint0_linear_1122_174" x1="33.5" y1="10" x2="65" y2="76" gradientUnits="userSpaceOnUse">
<stop stop-color="#5CA1FE"/>
<stop offset="1" stop-color="#217BF4"/>
</linearGradient>
</defs>
</svg>
