<svg width="22" height="23" viewBox="0 0 22 23" fill="none" xmlns="http://www.w3.org/2000/svg">
<path d="M18.7627 5.44718C19.623 4.91539 20.2836 4.07337 20.5947 3.07009C19.7897 3.56242 18.898 3.92001 17.9489 4.11274C17.1889 3.27768 16.1061 2.75586 14.9078 2.75586C12.6067 2.75586 10.7412 4.67961 10.7412 7.05241C10.7412 7.38916 10.7781 7.7171 10.8491 8.03156C7.38636 7.85238 4.31635 6.14182 2.2614 3.54235C1.90276 4.17693 1.6973 4.91501 1.6973 5.70242C1.6973 7.19305 2.43292 8.50819 3.55087 9.27867C2.86784 9.25637 2.22545 9.0631 1.66365 8.74129C1.66335 8.75922 1.66335 8.77722 1.66335 8.7953C1.66335 10.8771 3.09953 12.6137 5.00554 13.0083C4.65589 13.1066 4.28782 13.159 3.90779 13.159C3.63934 13.159 3.37831 13.1321 3.12397 13.082C3.65412 14.789 5.1928 16.0312 7.01599 16.0659C5.59007 17.2183 3.79355 17.9052 1.84155 17.9052C1.50528 17.9052 1.17361 17.8849 0.847656 17.8452C2.69149 19.0643 4.88156 19.7755 7.23446 19.7755C14.898 19.7755 19.0887 13.2284 19.0887 7.55064C19.0887 7.36434 19.0847 7.17903 19.0767 6.9948C19.8907 6.38902 20.5971 5.63225 21.1557 4.77061C20.4085 5.11234 19.6055 5.3433 18.7627 5.44718Z" fill="#2B2B39"/>
</svg>
